<svg width="17" height="14" viewBox="0 0 17 14" fill="none" xmlns="http://www.w3.org/2000/svg">
<path d="M6.12338 5.51852C7.14801 5.51852 7.97863 4.39509 7.97863 3.00926C7.97863 1.62343 7.14801 0.5 6.12338 0.5C5.09876 0.5 4.26814 1.62343 4.26814 3.00926C4.26814 4.39509 5.09876 5.51852 6.12338 5.51852Z" stroke="currentColor" stroke-miterlimit="10" stroke-linejoin="round"/>
<path d="M2.99769 8.2619C3.86794 7.99071 4.23696 6.81673 3.82191 5.63974C3.40686 4.46275 2.36491 3.72845 1.49466 3.99963C0.624406 4.27082 0.255392 5.4448 0.670443 6.62179C1.08549 7.79878 2.12744 8.53308 2.99769 8.2619Z" stroke="currentColor" stroke-miterlimit="10" stroke-linejoin="round"/>
<path d="M10.8764 5.51852C11.901 5.51852 12.7317 4.39509 12.7317 3.00926C12.7317 1.62343 11.901 0.5 10.8764 0.5C9.8518 0.5 9.02118 1.62343 9.02118 3.00926C9.02118 4.39509 9.8518 5.51852 10.8764 5.51852Z" stroke="currentColor" stroke-miterlimit="10" stroke-linejoin="round"/>
<path d="M16.3296 6.62236C16.7446 5.44536 16.3756 4.27139 15.5053 4.0002C14.6351 3.72901 13.5931 4.46331 13.1781 5.64031C12.763 6.8173 13.1321 7.99128 14.0023 8.26246C14.8726 8.53365 15.9145 7.79935 16.3296 6.62236Z" stroke="currentColor" stroke-miterlimit="10" stroke-linejoin="round"/>
<path d="M13.3861 9.87253L10.5727 7.41944C9.41156 6.40724 7.61652 6.40724 6.45539 7.41944L3.64197 9.87253C3.10291 10.3428 2.88446 10.9486 2.9214 11.5317C3.00121 12.8006 4.27817 13.6997 5.60621 13.4617L7.90384 13.0502C8.30699 12.9781 8.72064 12.9781 9.12379 13.0502L11.4214 13.4617C12.7495 13.6997 14.0269 12.8002 14.1062 11.5317C14.1427 10.9482 13.9247 10.3424 13.3857 9.87253H13.3861Z" stroke="currentColor" stroke-miterlimit="10" stroke-linejoin="round"/>
</svg>
