<svg width="103" height="100" viewBox="0 0 103 100" fill="none" xmlns="http://www.w3.org/2000/svg">
<path d="M0.241924 57.0902C59.8085 125.422 101.944 110.168 103 25.3909C103.02 24.0869 101.481 23.3996 100.515 24.2588C96.0896 28.1605 91.0704 36.7929 85.9104 45.6679C84.2608 48.5083 80.0161 47.9221 79.1812 44.738C74.1218 25.401 69.173 7.92389 65.3105 0.625768C64.7774 -0.385052 63.2787 -0.112131 63.1077 1.01999C61.7699 9.95564 62.8763 26.5735 64.1135 42.969C64.1638 43.6463 63.2284 43.8687 62.9769 43.242C55.4833 24.936 48.2513 8.06541 42.8699 1.48497C42.4676 0.989663 41.673 1.23226 41.6327 1.86908C40.9286 11.8863 43.5137 30.1215 46.2798 48.8015C46.4005 49.6202 45.3745 50.0852 44.8515 49.4484C33.606 36.0045 22.9038 23.8544 15.7421 19.9527C14.857 19.4675 13.7807 20.1953 13.8813 21.2061C14.8871 31.1829 20.5098 46.0723 26.9071 61.7905C27.2893 62.7306 26.3036 63.6504 25.3983 63.1956C16.0942 58.5559 6.66932 54.6845 0.915845 55.3314C0.0809875 55.4223 -0.291178 56.4534 0.262041 57.0902H0.241924Z" fill="currentColor"/>
</svg>
