<svg width="72" height="100" viewBox="0 0 72 100" fill="none" xmlns="http://www.w3.org/2000/svg">
<path d="M43.5337 0.0102867L31.7242 86.7041C31.2373 90.2804 28.8443 93.3943 25.4051 94.5555C20.3497 96.2615 14.0306 95.8195 8.78883 92.901C2.45933 89.3761 -0.855636 82.1413 0.190648 75.0196C5.50494 38.7327 17.6253 10.8419 43.5337 0V0.0102867Z" fill="currentColor"/>
<path d="M48.6219 0.688456L36.8123 87.3823C36.3254 90.9586 37.7964 94.5965 40.811 96.621C45.2344 99.6012 51.4396 100.834 57.2718 99.406C64.3161 97.6693 69.4439 91.5752 70.3452 84.4329C74.924 48.0433 70.7181 17.9635 48.6322 0.688456H48.6219Z" fill="currentColor"/>
</svg>
